<svg
  id="greeting"
  width="538"
  height="224"
  viewBox="0 0 538 224"
  fill="none"
  xmlns="http://www.w3.org/2000/svg"
>
  <rect width="538" height="224" rx="15" fill="#141A23" />
  <mask
    id="path-2-outside-1_0_1"
    maskUnits="userSpaceOnUse"
    x="59"
    y="63"
    width="420"
    height="98"
    fill="black"
  >
    <rect fill="white" x="59" y="63" width="420" height="98" />
    <path
      d="M71.456 102.08C74.2293 99.136 77.3013 96.7893 80.672 95.04C84.0427 93.2907 87.9253 92.416 92.32 92.416C95.8613 92.416 98.976 93.0133 101.664 94.208C104.395 95.36 106.656 97.024 108.448 99.2C110.283 101.333 111.669 103.915 112.608 106.944C113.547 109.973 114.016 113.323 114.016 116.992V158.272H102.56V116.992C102.56 112.085 101.429 108.288 99.168 105.6C96.9493 102.869 93.5573 101.504 88.992 101.504C85.6213 101.504 82.464 102.315 79.52 103.936C76.6187 105.557 73.9307 107.755 71.456 110.528V158.272H60V64H71.456V102.08Z"
    />
    <path
      d="M143.407 93.44V158.272H132.015V93.44H143.407ZM145.839 73.088C145.839 74.1973 145.604 75.2427 145.135 76.224C144.708 77.1627 144.111 78.016 143.343 78.784C142.618 79.5093 141.743 80.0853 140.719 80.512C139.738 80.9387 138.692 81.152 137.583 81.152C136.474 81.152 135.428 80.9387 134.447 80.512C133.508 80.0853 132.676 79.5093 131.951 78.784C131.226 78.016 130.65 77.1627 130.223 76.224C129.796 75.2427 129.583 74.1973 129.583 73.088C129.583 71.9787 129.796 70.9333 130.223 69.952C130.65 68.928 131.226 68.0533 131.951 67.328C132.676 66.56 133.508 65.9627 134.447 65.536C135.428 65.1093 136.474 64.896 137.583 64.896C138.692 64.896 139.738 65.1093 140.719 65.536C141.743 65.9627 142.618 66.56 143.343 67.328C144.111 68.0533 144.708 68.928 145.135 69.952C145.604 70.9333 145.839 71.9787 145.839 73.088Z"
    />
    <path
      d="M214.779 159.296C209.659 159.296 205.712 157.867 202.939 155.008C200.208 152.149 198.843 148.032 198.843 142.656V102.976H191.035C190.352 102.976 189.776 102.784 189.307 102.4C188.838 101.973 188.603 101.333 188.603 100.48V95.936L199.227 94.592L201.851 74.56C201.979 73.92 202.256 73.408 202.683 73.024C203.152 72.5973 203.75 72.384 204.475 72.384H210.235V94.72H228.987V102.976H210.235V141.888C210.235 144.619 210.896 146.645 212.219 147.968C213.542 149.291 215.248 149.952 217.339 149.952C218.534 149.952 219.558 149.803 220.411 149.504C221.307 149.163 222.075 148.8 222.715 148.416C223.355 148.032 223.888 147.691 224.315 147.392C224.784 147.051 225.19 146.88 225.531 146.88C226.128 146.88 226.662 147.243 227.131 147.968L230.459 153.408C228.496 155.243 226.128 156.693 223.355 157.76C220.582 158.784 217.723 159.296 214.779 159.296Z"
    />
    <path
      d="M252.206 102.08C254.979 99.136 258.051 96.7893 261.422 95.04C264.793 93.2907 268.675 92.416 273.07 92.416C276.611 92.416 279.726 93.0133 282.414 94.208C285.145 95.36 287.406 97.024 289.198 99.2C291.033 101.333 292.419 103.915 293.358 106.944C294.297 109.973 294.766 113.323 294.766 116.992V158.272H283.31V116.992C283.31 112.085 282.179 108.288 279.918 105.6C277.699 102.869 274.307 101.504 269.742 101.504C266.371 101.504 263.214 102.315 260.27 103.936C257.369 105.557 254.681 107.755 252.206 110.528V158.272H240.75V64H252.206V102.08Z"
    />
    <path
      d="M355.517 118.784C355.517 116.139 355.133 113.728 354.365 111.552C353.64 109.333 352.552 107.435 351.101 105.856C349.693 104.235 347.965 102.997 345.917 102.144C343.869 101.248 341.544 100.8 338.941 100.8C333.48 100.8 329.149 102.4 325.949 105.6C322.792 108.757 320.829 113.152 320.061 118.784H355.517ZM364.733 149.184C363.325 150.891 361.64 152.384 359.677 153.664C357.714 154.901 355.602 155.925 353.341 156.736C351.122 157.547 348.818 158.144 346.429 158.528C344.04 158.955 341.672 159.168 339.325 159.168C334.845 159.168 330.706 158.421 326.909 156.928C323.154 155.392 319.89 153.173 317.117 150.272C314.386 147.328 312.253 143.701 310.717 139.392C309.181 135.083 308.413 130.133 308.413 124.544C308.413 120.021 309.096 115.797 310.461 111.872C311.869 107.947 313.874 104.555 316.477 101.696C319.08 98.7947 322.258 96.5333 326.013 94.912C329.768 93.248 333.992 92.416 338.685 92.416C342.568 92.416 346.152 93.0773 349.437 94.4C352.765 95.68 355.624 97.5573 358.013 100.032C360.445 102.464 362.344 105.493 363.709 109.12C365.074 112.704 365.757 116.8 365.757 121.408C365.757 123.2 365.565 124.395 365.181 124.992C364.797 125.589 364.072 125.888 363.005 125.888H319.677C319.805 129.984 320.36 133.547 321.341 136.576C322.365 139.605 323.773 142.144 325.565 144.192C327.357 146.197 329.49 147.712 331.965 148.736C334.44 149.717 337.213 150.208 340.285 150.208C343.144 150.208 345.597 149.888 347.645 149.248C349.736 148.565 351.528 147.84 353.021 147.072C354.514 146.304 355.752 145.6 356.733 144.96C357.757 144.277 358.632 143.936 359.357 143.936C360.296 143.936 361.021 144.299 361.533 145.024L364.733 149.184Z"
    />
    <path
      d="M390.566 106.432C392.614 101.995 395.131 98.5387 398.118 96.064C401.105 93.5467 404.753 92.288 409.062 92.288C410.427 92.288 411.729 92.4373 412.966 92.736C414.246 93.0347 415.377 93.504 416.358 94.144L415.526 102.656C415.27 103.723 414.63 104.256 413.606 104.256C413.009 104.256 412.134 104.128 410.982 103.872C409.83 103.616 408.529 103.488 407.078 103.488C405.03 103.488 403.195 103.787 401.574 104.384C399.995 104.981 398.566 105.877 397.286 107.072C396.049 108.224 394.918 109.675 393.894 111.424C392.913 113.131 392.017 115.093 391.206 117.312V158.272H379.75V93.44H386.278C387.515 93.44 388.369 93.6747 388.838 94.144C389.307 94.6133 389.627 95.424 389.798 96.576L390.566 106.432Z"
    />
    <path
      d="M467.142 118.784C467.142 116.139 466.758 113.728 465.99 111.552C465.265 109.333 464.177 107.435 462.726 105.856C461.318 104.235 459.59 102.997 457.542 102.144C455.494 101.248 453.169 100.8 450.566 100.8C445.105 100.8 440.774 102.4 437.574 105.6C434.417 108.757 432.454 113.152 431.686 118.784H467.142ZM476.358 149.184C474.95 150.891 473.265 152.384 471.302 153.664C469.339 154.901 467.227 155.925 464.966 156.736C462.747 157.547 460.443 158.144 458.054 158.528C455.665 158.955 453.297 159.168 450.95 159.168C446.47 159.168 442.331 158.421 438.534 156.928C434.779 155.392 431.515 153.173 428.742 150.272C426.011 147.328 423.878 143.701 422.342 139.392C420.806 135.083 420.038 130.133 420.038 124.544C420.038 120.021 420.721 115.797 422.086 111.872C423.494 107.947 425.499 104.555 428.102 101.696C430.705 98.7947 433.883 96.5333 437.638 94.912C441.393 93.248 445.617 92.416 450.31 92.416C454.193 92.416 457.777 93.0773 461.062 94.4C464.39 95.68 467.249 97.5573 469.638 100.032C472.07 102.464 473.969 105.493 475.334 109.12C476.699 112.704 477.382 116.8 477.382 121.408C477.382 123.2 477.19 124.395 476.806 124.992C476.422 125.589 475.697 125.888 474.63 125.888H431.302C431.43 129.984 431.985 133.547 432.966 136.576C433.99 139.605 435.398 142.144 437.19 144.192C438.982 146.197 441.115 147.712 443.59 148.736C446.065 149.717 448.838 150.208 451.91 150.208C454.769 150.208 457.222 149.888 459.27 149.248C461.361 148.565 463.153 147.84 464.646 147.072C466.139 146.304 467.377 145.6 468.358 144.96C469.382 144.277 470.257 143.936 470.982 143.936C471.921 143.936 472.646 144.299 473.158 145.024L476.358 149.184Z"
    />
  </mask>
  <path
    d="M71.456 102.08C74.2293 99.136 77.3013 96.7893 80.672 95.04C84.0427 93.2907 87.9253 92.416 92.32 92.416C95.8613 92.416 98.976 93.0133 101.664 94.208C104.395 95.36 106.656 97.024 108.448 99.2C110.283 101.333 111.669 103.915 112.608 106.944C113.547 109.973 114.016 113.323 114.016 116.992V158.272H102.56V116.992C102.56 112.085 101.429 108.288 99.168 105.6C96.9493 102.869 93.5573 101.504 88.992 101.504C85.6213 101.504 82.464 102.315 79.52 103.936C76.6187 105.557 73.9307 107.755 71.456 110.528V158.272H60V64H71.456V102.08Z"
    stroke="url(#paint0_linear_0_1)"
    stroke-width="2"
    mask="url(#path-2-outside-1_0_1)"
  />
  <path
    d="M143.407 93.44V158.272H132.015V93.44H143.407ZM145.839 73.088C145.839 74.1973 145.604 75.2427 145.135 76.224C144.708 77.1627 144.111 78.016 143.343 78.784C142.618 79.5093 141.743 80.0853 140.719 80.512C139.738 80.9387 138.692 81.152 137.583 81.152C136.474 81.152 135.428 80.9387 134.447 80.512C133.508 80.0853 132.676 79.5093 131.951 78.784C131.226 78.016 130.65 77.1627 130.223 76.224C129.796 75.2427 129.583 74.1973 129.583 73.088C129.583 71.9787 129.796 70.9333 130.223 69.952C130.65 68.928 131.226 68.0533 131.951 67.328C132.676 66.56 133.508 65.9627 134.447 65.536C135.428 65.1093 136.474 64.896 137.583 64.896C138.692 64.896 139.738 65.1093 140.719 65.536C141.743 65.9627 142.618 66.56 143.343 67.328C144.111 68.0533 144.708 68.928 145.135 69.952C145.604 70.9333 145.839 71.9787 145.839 73.088Z"
    stroke="url(#paint1_linear_0_1)"
    stroke-width="2"
    mask="url(#path-2-outside-1_0_1)"
  />
  <path
    d="M214.779 159.296C209.659 159.296 205.712 157.867 202.939 155.008C200.208 152.149 198.843 148.032 198.843 142.656V102.976H191.035C190.352 102.976 189.776 102.784 189.307 102.4C188.838 101.973 188.603 101.333 188.603 100.48V95.936L199.227 94.592L201.851 74.56C201.979 73.92 202.256 73.408 202.683 73.024C203.152 72.5973 203.75 72.384 204.475 72.384H210.235V94.72H228.987V102.976H210.235V141.888C210.235 144.619 210.896 146.645 212.219 147.968C213.542 149.291 215.248 149.952 217.339 149.952C218.534 149.952 219.558 149.803 220.411 149.504C221.307 149.163 222.075 148.8 222.715 148.416C223.355 148.032 223.888 147.691 224.315 147.392C224.784 147.051 225.19 146.88 225.531 146.88C226.128 146.88 226.662 147.243 227.131 147.968L230.459 153.408C228.496 155.243 226.128 156.693 223.355 157.76C220.582 158.784 217.723 159.296 214.779 159.296Z"
    stroke="url(#paint2_linear_0_1)"
    stroke-width="2"
    mask="url(#path-2-outside-1_0_1)"
  />
  <path
    d="M252.206 102.08C254.979 99.136 258.051 96.7893 261.422 95.04C264.793 93.2907 268.675 92.416 273.07 92.416C276.611 92.416 279.726 93.0133 282.414 94.208C285.145 95.36 287.406 97.024 289.198 99.2C291.033 101.333 292.419 103.915 293.358 106.944C294.297 109.973 294.766 113.323 294.766 116.992V158.272H283.31V116.992C283.31 112.085 282.179 108.288 279.918 105.6C277.699 102.869 274.307 101.504 269.742 101.504C266.371 101.504 263.214 102.315 260.27 103.936C257.369 105.557 254.681 107.755 252.206 110.528V158.272H240.75V64H252.206V102.08Z"
    stroke="url(#paint3_linear_0_1)"
    stroke-width="2"
    mask="url(#path-2-outside-1_0_1)"
  />
  <path
    d="M355.517 118.784C355.517 116.139 355.133 113.728 354.365 111.552C353.64 109.333 352.552 107.435 351.101 105.856C349.693 104.235 347.965 102.997 345.917 102.144C343.869 101.248 341.544 100.8 338.941 100.8C333.48 100.8 329.149 102.4 325.949 105.6C322.792 108.757 320.829 113.152 320.061 118.784H355.517ZM364.733 149.184C363.325 150.891 361.64 152.384 359.677 153.664C357.714 154.901 355.602 155.925 353.341 156.736C351.122 157.547 348.818 158.144 346.429 158.528C344.04 158.955 341.672 159.168 339.325 159.168C334.845 159.168 330.706 158.421 326.909 156.928C323.154 155.392 319.89 153.173 317.117 150.272C314.386 147.328 312.253 143.701 310.717 139.392C309.181 135.083 308.413 130.133 308.413 124.544C308.413 120.021 309.096 115.797 310.461 111.872C311.869 107.947 313.874 104.555 316.477 101.696C319.08 98.7947 322.258 96.5333 326.013 94.912C329.768 93.248 333.992 92.416 338.685 92.416C342.568 92.416 346.152 93.0773 349.437 94.4C352.765 95.68 355.624 97.5573 358.013 100.032C360.445 102.464 362.344 105.493 363.709 109.12C365.074 112.704 365.757 116.8 365.757 121.408C365.757 123.2 365.565 124.395 365.181 124.992C364.797 125.589 364.072 125.888 363.005 125.888H319.677C319.805 129.984 320.36 133.547 321.341 136.576C322.365 139.605 323.773 142.144 325.565 144.192C327.357 146.197 329.49 147.712 331.965 148.736C334.44 149.717 337.213 150.208 340.285 150.208C343.144 150.208 345.597 149.888 347.645 149.248C349.736 148.565 351.528 147.84 353.021 147.072C354.514 146.304 355.752 145.6 356.733 144.96C357.757 144.277 358.632 143.936 359.357 143.936C360.296 143.936 361.021 144.299 361.533 145.024L364.733 149.184Z"
    stroke="url(#paint4_linear_0_1)"
    stroke-width="2"
    mask="url(#path-2-outside-1_0_1)"
  />
  <path
    d="M390.566 106.432C392.614 101.995 395.131 98.5387 398.118 96.064C401.105 93.5467 404.753 92.288 409.062 92.288C410.427 92.288 411.729 92.4373 412.966 92.736C414.246 93.0347 415.377 93.504 416.358 94.144L415.526 102.656C415.27 103.723 414.63 104.256 413.606 104.256C413.009 104.256 412.134 104.128 410.982 103.872C409.83 103.616 408.529 103.488 407.078 103.488C405.03 103.488 403.195 103.787 401.574 104.384C399.995 104.981 398.566 105.877 397.286 107.072C396.049 108.224 394.918 109.675 393.894 111.424C392.913 113.131 392.017 115.093 391.206 117.312V158.272H379.75V93.44H386.278C387.515 93.44 388.369 93.6747 388.838 94.144C389.307 94.6133 389.627 95.424 389.798 96.576L390.566 106.432Z"
    stroke="url(#paint5_linear_0_1)"
    stroke-width="2"
    mask="url(#path-2-outside-1_0_1)"
  />
  <path
    d="M467.142 118.784C467.142 116.139 466.758 113.728 465.99 111.552C465.265 109.333 464.177 107.435 462.726 105.856C461.318 104.235 459.59 102.997 457.542 102.144C455.494 101.248 453.169 100.8 450.566 100.8C445.105 100.8 440.774 102.4 437.574 105.6C434.417 108.757 432.454 113.152 431.686 118.784H467.142ZM476.358 149.184C474.95 150.891 473.265 152.384 471.302 153.664C469.339 154.901 467.227 155.925 464.966 156.736C462.747 157.547 460.443 158.144 458.054 158.528C455.665 158.955 453.297 159.168 450.95 159.168C446.47 159.168 442.331 158.421 438.534 156.928C434.779 155.392 431.515 153.173 428.742 150.272C426.011 147.328 423.878 143.701 422.342 139.392C420.806 135.083 420.038 130.133 420.038 124.544C420.038 120.021 420.721 115.797 422.086 111.872C423.494 107.947 425.499 104.555 428.102 101.696C430.705 98.7947 433.883 96.5333 437.638 94.912C441.393 93.248 445.617 92.416 450.31 92.416C454.193 92.416 457.777 93.0773 461.062 94.4C464.39 95.68 467.249 97.5573 469.638 100.032C472.07 102.464 473.969 105.493 475.334 109.12C476.699 112.704 477.382 116.8 477.382 121.408C477.382 123.2 477.19 124.395 476.806 124.992C476.422 125.589 475.697 125.888 474.63 125.888H431.302C431.43 129.984 431.985 133.547 432.966 136.576C433.99 139.605 435.398 142.144 437.19 144.192C438.982 146.197 441.115 147.712 443.59 148.736C446.065 149.717 448.838 150.208 451.91 150.208C454.769 150.208 457.222 149.888 459.27 149.248C461.361 148.565 463.153 147.84 464.646 147.072C466.139 146.304 467.377 145.6 468.358 144.96C469.382 144.277 470.257 143.936 470.982 143.936C471.921 143.936 472.646 144.299 473.158 145.024L476.358 149.184Z"
    stroke="url(#paint6_linear_0_1)"
    stroke-width="2"
    mask="url(#path-2-outside-1_0_1)"
  />
  <defs>
    <style>
      @keyframes draw {
        to {
          stroke-dashoffset: 0;
        }
      }

      #greeting path:nth-child(3) {
        stroke-dasharray: 402px;
        stroke-dashoffset: 402px;

        animation: draw 2.5s ease 0.4s forwards;
      }

      #greeting path:nth-child(4) {
        stroke-dasharray: 204px;
        stroke-dashoffset: 204px;

        animation: draw 2.5s ease 0.8s forwards;
      }

      #greeting path:nth-child(5) {
        stroke-dasharray: 277px;
        stroke-dashoffset: 277px;

        animation: draw 2.5s ease 1.2s forwards;
      }

      #greeting path:nth-child(6) {
        stroke-dasharray: 402px;
        stroke-dashoffset: 402px;

        animation: draw 2.5s ease 1.6s forwards;
      }

      #greeting path:nth-child(7) {
        stroke-dasharray: 381px;
        stroke-dashoffset: 381px;

        animation: draw 2.5s ease 2s forwards;
      }

      #greeting path:nth-child(8) {
        stroke-dasharray: 213px;
        stroke-dashoffset: 213px;

        animation: draw 2.5s ease 2.4s forwards;
      }

      #greeting path:nth-child(9) {
        stroke-dasharray: 381px;
        stroke-dashoffset: 381px;

        animation: draw 2.5s ease 2.4s forwards;
      }
    </style>
    <linearGradient
      id="paint0_linear_0_1"
      x1="59.976"
      y1="159.272"
      x2="476.976"
      y2="159.272"
      gradientUnits="userSpaceOnUse"
    >
      <stop stop-color="#EE0979" />
      <stop offset="1" stop-color="#FF6A00" />
    </linearGradient>
    <linearGradient
      id="paint1_linear_0_1"
      x1="59.976"
      y1="159.272"
      x2="476.976"
      y2="159.272"
      gradientUnits="userSpaceOnUse"
    >
      <stop stop-color="#EE0979" />
      <stop offset="1" stop-color="#FF6A00" />
    </linearGradient>
    <linearGradient
      id="paint2_linear_0_1"
      x1="59.976"
      y1="159.272"
      x2="476.976"
      y2="159.272"
      gradientUnits="userSpaceOnUse"
    >
      <stop stop-color="#EE0979" />
      <stop offset="1" stop-color="#FF6A00" />
    </linearGradient>
    <linearGradient
      id="paint3_linear_0_1"
      x1="59.976"
      y1="159.272"
      x2="476.976"
      y2="159.272"
      gradientUnits="userSpaceOnUse"
    >
      <stop stop-color="#EE0979" />
      <stop offset="1" stop-color="#FF6A00" />
    </linearGradient>
    <linearGradient
      id="paint4_linear_0_1"
      x1="59.976"
      y1="159.272"
      x2="476.976"
      y2="159.272"
      gradientUnits="userSpaceOnUse"
    >
      <stop stop-color="#EE0979" />
      <stop offset="1" stop-color="#FF6A00" />
    </linearGradient>
    <linearGradient
      id="paint5_linear_0_1"
      x1="59.976"
      y1="159.272"
      x2="476.976"
      y2="159.272"
      gradientUnits="userSpaceOnUse"
    >
      <stop stop-color="#EE0979" />
      <stop offset="1" stop-color="#FF6A00" />
    </linearGradient>
    <linearGradient
      id="paint6_linear_0_1"
      x1="59.976"
      y1="159.272"
      x2="476.976"
      y2="159.272"
      gradientUnits="userSpaceOnUse"
    >
      <stop stop-color="#EE0979" />
      <stop offset="1" stop-color="#FF6A00" />
    </linearGradient>
  </defs>
</svg>
